<?xml version="1.0" encoding="utf-8"?>
<COLLADA xmlns="http://www.collada.org/2005/11/COLLADASchema" version="1.4.1" xmlns:xsi="http://www.w3.org/2001/XMLSchema-instance">
  <asset>
    <contributor>
      <author>Blender User</author>
      <authoring_tool>Blender 2.92.0 commit date:2021-02-24, commit time:16:25, hash:02948a2cab44</authoring_tool>
    </contributor>
    <created>2022-11-05T20:28:18</created>
    <modified>2022-11-05T20:28:18</modified>
    <unit name="meter" meter="1"/>
    <up_axis>Z_UP</up_axis>
  </asset>
  <library_cameras>
    <camera id="Camera-camera" name="Camera">
      <optics>
        <technique_common>
          <perspective>
            <xfov sid="xfov">39.59775</xfov>
            <aspect_ratio>1.777778</aspect_ratio>
            <znear sid="znear">0.1</znear>
            <zfar sid="zfar">100</zfar>
          </perspective>
        </technique_common>
      </optics>
      <extra>
        <technique profile="blender">
          <shiftx sid="shiftx" floatType="float">0</shiftx>
          <shifty sid="shifty" floatType="float">0</shifty>
          <dof_distance sid="dof_distance" floatType="float">10</dof_distance>
        </technique>
      </extra>
    </camera>
  </library_cameras>
  <library_lights>
    <light id="Light-light" name="Light">
      <technique_common>
        <point>
          <color sid="color">1000 1000 1000</color>
          <constant_attenuation>1</constant_attenuation>
          <linear_attenuation>0</linear_attenuation>
          <quadratic_attenuation>0.00111109</quadratic_attenuation>
        </point>
      </technique_common>
      <extra>
        <technique profile="blender">
          <floatType sid="floatType" floatType="int">0</floatType>
          <flag sid="flag" floatType="int">0</flag>
          <mode sid="mode" floatType="int">1</mode>
          <gamma sid="blender_gamma" floatType="float">1</gamma>
          <red sid="red" floatType="float">1</red>
          <green sid="green" floatType="float">1</green>
          <blue sid="blue" floatType="float">1</blue>
          <shadow_r sid="blender_shadow_r" floatType="float">0</shadow_r>
          <shadow_g sid="blender_shadow_g" floatType="float">0</shadow_g>
          <shadow_b sid="blender_shadow_b" floatType="float">0</shadow_b>
          <energy sid="blender_energy" floatType="float">1000</energy>
          <dist sid="blender_dist" floatType="float">29.99998</dist>
          <spotsize sid="spotsize" floatType="float">75</spotsize>
          <spotblend sid="spotblend" floatType="float">0.15</spotblend>
          <att1 sid="att1" floatType="float">0</att1>
          <att2 sid="att2" floatType="float">1</att2>
          <falloff_type sid="falloff_type" floatType="int">2</falloff_type>
          <clipsta sid="clipsta" floatType="float">0.04999995</clipsta>
          <clipend sid="clipend" floatType="float">30.002</clipend>
          <bias sid="bias" floatType="float">1</bias>
          <soft sid="soft" floatType="float">3</soft>
          <bufsize sid="bufsize" floatType="int">2880</bufsize>
          <samp sid="samp" floatType="int">3</samp>
          <buffers sid="buffers" floatType="int">1</buffers>
          <area_shape sid="area_shape" floatType="int">1</area_shape>
          <area_size sid="area_size" floatType="float">0.1</area_size>
          <area_sizey sid="area_sizey" floatType="float">0.1</area_sizey>
          <area_sizez sid="area_sizez" floatType="float">1</area_sizez>
        </technique>
      </extra>
    </light>
  </library_lights>
  <library_effects>
    <effect id="Material-effect">
      <profile_COMMON>
        <technique sid="common">
          <lambert>
            <emission>
              <color sid="emission">0 0 0 1</color>
            </emission>
            <diffuse>
              <color sid="diffuse">0.8 0.8 0.8 1</color>
            </diffuse>
            <index_of_refraction>
              <float sid="ior">1.45</float>
            </index_of_refraction>
          </lambert>
        </technique>
      </profile_COMMON>
    </effect>
  </library_effects>
  <library_images/>
  <library_materials>
    <material id="Material-material" name="Material">
      <instance_effect url="#Material-effect"/>
    </material>
  </library_materials>
  <library_geometries>
    <geometry id="Cube-mesh" name="Cube">
      <mesh>
        <source id="Cube-mesh-positions">
          <float_array id="Cube-mesh-positions-array" count="252">0.9247151 1.149487 1.166591 1 1 -1 1.730045 -1.152818 1.628361 1 -1 -1 -1.010332 1.013607 1.017238 -1.013313 0.9955068 -1.00429 -0.4569535 -1.113726 1.467291 -1 -1 -1 -1.260059 0.8069707 -0.4911757 -1.350648 0.3763971 -0.5203672 -1.260059 0.006970584 -0.4911757 -1.170262 -0.3627234 -0.4622395 0.6019917 1.441699 2.165659 0.5274411 1.305278 2.424716 0.5126774 0.7248373 2.501697 0.8426458 -0.7338794 1.8712 -0.9003095 -0.4187417 1.771231 -1.077872 0.02294188 1.62871 -1.180303 0.4505014 1.554513 -1.184527 0.8560643 1.56156 0.7399413 -0.3930294 -0.4911756 0.6493518 -0.0236029 -0.5203672 0.6493518 0.3763971 -0.5203672 0.7399413 0.8069707 -0.4911756 0.6545277 0.9959032 -1.003912 0.2568765 0.9741962 -1.024637 -0.07746654 0.9738554 -1.024963 -0.4107999 0.9738554 -1.024963 -0.7441332 0.9738554 -1.024963 1.396722 -1.152832 1.628344 1.0634 -1.152845 1.628327 0.7300766 -1.152859 1.628309 0.3967537 -1.152873 1.628292 0.06343072 -1.152886 1.628275 -0.6666666 -1 -1 -0.3333333 -1 -1 0 -1 -1 0.3333334 -1 -1 0.6666667 -1 -1 -0.687824 1.036254 1.04213 -0.3653162 1.058901 1.067022 -0.04280835 1.081547 1.091914 0.2796995 1.104194 1.116806 0.6022073 1.126841 1.141699 0.1739667 0.7284554 -0.5661419 -0.280101 0.6877081 -0.6050474 -0.6134343 0.6877081 -0.6050474 -0.9467677 0.6877081 -0.6050474 -1.159367 0.7284554 -0.5661419 -0.009198725 0.2666378 -0.6251651 -0.5167084 0.2078541 -0.6812916 -0.8500417 0.2078541 -0.6812916 -1.183375 0.2078541 -0.6812916 -1.342532 0.2666378 -0.6251652 -0.009198725 -0.1333622 -0.6251651 -0.5167084 -0.1921458 -0.6812916 -0.8500417 -0.1921458 -0.6812916 -1.009199 -0.1333622 -0.6251651 -1.159367 -0.0715447 -0.5661419 0.1739667 -0.4715448 -0.5661419 -0.280101 -0.512292 -0.6050474 -0.6134343 -0.512292 -0.6050474 -0.8260334 -0.4715448 -0.5661419 -0.9267254 -0.3930294 -0.4911756 -0.8867738 0.9536702 1.662243 -0.5890207 1.051276 1.762926 -0.2912676 1.148882 1.86361 0.006485462 1.246488 1.964293 0.3042386 1.344094 2.064976 -0.8956791 0.5929641 1.699547 -0.611055 0.7354268 1.844581 -0.326431 0.8778895 1.989615 -0.04180693 1.020352 2.134649 0.2428171 1.162815 2.279683 -0.7374832 0.1241557 1.839001 -0.5279709 0.2527778 1.936673 -0.3308749 0.384 2.02366 -0.04981124 0.4976377 2.182902 0.231433 0.6112375 2.3423 -0.3020243 -0.535723 2.052748 0.1403656 -0.6200565 2.200117 0.4308581 -0.6725795 2.216778 0.7213507 -0.7251024 2.23344 0.8599458 -0.7458148 2.119394</float_array>
          <technique_common>
            <accessor source="#Cube-mesh-positions-array" count="84" stride="3">
              <param name="X" floatType="float"/>
              <param name="Y" floatType="float"/>
              <param name="Z" floatType="float"/>
            </accessor>
          </technique_common>
        </source>
        <source id="Cube-mesh-normals">
          <float_array id="Cube-mesh-normals-array" count="486">-0.2690203 -0.6488473 0.7117761 0 -0.9989394 -0.0460444 -0.6151771 0.7883651 -0.006151676 0.01260691 0.6414832 -0.7670336 0.828817 0.5226215 -0.1998233 -0.0111429 0.9980646 -0.06117933 0.6835187 -0.7261871 0.07385545 0.972173 -0.2113841 0.1009781 0.9989789 0 0.0451793 0.9713404 0.23756 -0.007953226 0.1752668 -0.9139711 -0.3659761 0.1456661 0.068367 -0.9869688 0.1571568 0 -0.9875736 0.1695826 -0.07959204 -0.9822968 -0.9016521 -0.3930689 0.1803342 -0.9697298 -0.2288844 0.08506494 -0.969058 -0.2306907 0.08779752 -0.9769486 0.2005901 0.07304215 -0.07786321 0.991203 0.1070235 -0.349251 0.1049196 0.9311367 -0.5389086 0.06790715 0.8396227 -0.423486 0.01394283 0.9057954 -0.3044806 -0.4351138 0.8473297 0.6410843 0.1741393 0.7474534 -0.05621212 0.005812704 0.9984019 -0.02757853 0.1604551 0.9866579 -0.3066754 0.05202877 0.9503911 -0.4998583 0.1263526 0.8568412 -0.4937939 0.1081432 0.8628283 -0.4867621 0.0876857 0.8691225 -0.4785742 0.06466883 0.8756626 -0.4849888 0.08262962 0.870608 -0.3941999 0.8550686 0.3368442 -0.4190251 0.7493154 0.5127812 -0.4257326 0.6006961 0.676695 -0.412208 0.4275743 0.8045277 -0.3839364 0.2561271 0.8871256 -0.04438918 0.9548883 -0.2936292 -0.04919785 0.9685794 -0.2437901 -0.05484718 0.9816739 -0.1825056 -0.06147712 0.9924225 -0.1063871 -0.06917506 0.9975405 -0.01130717 -0.6874403 -0.2211212 -0.6917595 -0.4890314 -0.5176049 -0.7020923 -0.4285048 -0.3755167 -0.8218095 0 -0.2316752 -0.9727932 0.1249924 -0.1414949 -0.9820164 -0.9616591 -0.2232251 0.159318 -0.4285045 -0.3755166 -0.8218097 0 -0.1623085 -0.9867401 0 0 -1 0.1099215 0 -0.9939404 -0.5039289 0.1635227 -0.8481251 -0.2511258 0.2200722 -0.942605 0 0.1569221 -0.987611 0 0.1569221 -0.9876111 0.09672319 0.1094933 -0.9892704 -0.7316144 -0.4459099 -0.5156597 -0.2557468 -0.7370023 -0.6256366 0 -0.8263728 -0.5631237 0 -0.8263726 -0.5631238 0.1180887 -0.8839521 -0.4524199 0.07948219 0.9967954 -0.009042382 0 0.9995448 -0.03017294 0 0.9991748 -0.04061955 -9.68633e-4 0.9987089 -0.05079156 -0.05129212 0.9968816 -0.05996972 -0.01093512 0.6431653 -0.7656493 -0.1069515 0.6114333 -0.7840349 -0.02447247 0.6206203 -0.7837293 0 0.6293345 -0.7771345 0.00902003 0.636136 -0.7715242 0 -0.9983138 -0.05804955 0 -0.9983134 -0.05805504 0 -0.9983131 -0.05806058 0 -0.9983128 -0.05806595 0 -0.9983124 -0.05807179 -2.47549e-5 -0.5015312 0.8651397 -1.41136e-6 -0.7699091 0.6381536 3.61323e-6 -0.8165827 0.5772285 -1.18137e-6 -0.7747283 0.6322944 -5.722e-6 -0.7316224 0.6817101 -0.4369823 -0.5795845 0.6878432 -0.06246763 -0.9972186 -0.04065543 -0.6598383 0.7513812 0.006308972 0 0.6424288 -0.7663454 0.4485188 0.887163 0.1085028 -0.06442344 0.9953996 -0.07091772 -0.1891881 -0.9572387 0.218865 0.9519523 -0.2785525 0.1272613 0.9986944 -0.01911932 0.04737091 0.9741824 0.2254552 -0.01177799 0.01505565 -0.9374029 -0.3479216 0.1256388 0.04076927 -0.9912381 0.1571569 0 -0.9875736 0.1372473 -0.04453623 -0.9895351 -0.8226455 -0.5621147 0.08533191 -0.9339636 -0.3418055 0.1043123 -0.9721946 -0.218127 0.08519572 -0.999253 -0.01105076 0.03703248 -0.3543142 0.9224271 0.1535897 -0.4458826 -0.0201925 0.8948637 -0.4696715 0.04052227 0.8819109 -0.536738 0.05588608 0.8418961 0.9038998 0.425624 -0.04253715 -0.4110521 -0.2227076 0.8839896 -0.4389376 -0.1546718 0.8851048 -0.3913748 -0.0220071 0.9199683 -0.4277805 0.01047116 0.903822 -0.5225564 0.1068135 0.8458875 -0.5174449 0.08651328 0.8513321 -0.511313 0.06367921 0.8570322 -0.4523807 0.0913949 0.8871296 -0.4709616 0.1017354 0.8762677 -0.5695427 0.7011125 0.4290251 -0.5812162 0.5651725 0.5854638 -0.5680826 0.4064496 0.7155984 -0.5350498 0.2462485 0.8081358 -0.4915636 0.1015829 0.8648967 -0.2091946 0.9346721 -0.287447 -0.2308689 0.9446656 -0.2330377 -0.2561938 0.9523378 -0.165582 -0.2855292 0.9549134 -0.08132272 -0.3187096 0.9475502 0.02393943 -0.1515372 -0.3271625 -0.9327386 -0.7330768 -0.4809776 -0.480894 -0.2372884 -0.3875184 -0.8907996 0 -0.2316752 -0.9727933 0.09549468 -0.1207288 -0.9880816 -0.733076 -0.4809777 -0.4808951 -0.4679519 -0.3708212 -0.8021923 -0.3325737 0 -0.9430773 0.1099219 0 -0.9939402 -0.8047662 0.3777099 -0.4579156 -0.1346605 0.2199157 -0.96618 0 0.1569222 -0.9876111 0 0.1569221 -0.987611 0.07636618 0.09654587 -0.9923947 -0.10869 -0.832322 -0.5435315 0 -0.8263729 -0.5631234 0.001390218 -0.8266842 -0.5626645 0.07230705 -0.8844636 -0.4609727 -0.06784957 0.9972953 -0.02825683 -0.06699317 0.9969881 -0.03907394 -0.06615048 0.9965754 -0.0496158 -0.06533133 0.9960719 -0.05977106 -0.06512087 0.9959267 -0.06236511 0 0.6424286 -0.7663456 0 0.6345384 -0.7728914 0 0.6293341 -0.7771349 0 0.6293345 -0.7771346 0 0.6345386 -0.7728913 4.4092e-5 -0.9983133 -0.05805605 4.40917e-5 -0.9983131 -0.05806165 4.40915e-5 -0.9983127 -0.05806732 4.40742e-5 -0.9983124 -0.05807268 4.40654e-5 -0.9983121 -0.0580784 0.6021216 0.7983964 -0.003576159 0.4660046 -0.57666 0.6710461 -0.1779844 -0.8047524 0.5662995 -0.1731298 -0.7580904 0.6287489 -0.3473934 -0.66229 0.6638448</float_array>
          <technique_common>
            <accessor source="#Cube-mesh-normals-array" count="162" stride="3">
              <param name="X" floatType="float"/>
              <param name="Y" floatType="float"/>
              <param name="Z" floatType="float"/>
            </accessor>
          </technique_common>
        </source>
        <source id="Cube-mesh-map-0">
          <float_array id="Cube-mesh-map-0-array" count="984">0.8333333 0.7000001 0.875 0.75 0.8333333 0.75 0.375 0.9583333 0.625 1 0.375 1 0.375 0.2 0.625 0.25 0.375 0.25 0.375 0.7000001 0.3333333 0.75 0.3333333 0.7000001 0.375 0.7000001 0.625 0.75 0.375 0.75 0.625 0.4583333 0.375 0.5 0.375 0.4583333 0.625 0.5 0.375 0.55 0.375 0.5 0.625 0.55 0.375 0.6 0.375 0.55 0.375 0.6 0.625 0.65 0.375 0.65 0.375 0.65 0.625 0.7 0.375 0.7000001 0.3333333 0.5 0.375 0.55 0.3333333 0.55 0.3333333 0.55 0.375 0.6 0.3333333 0.6 0.3333333 0.6 0.375 0.65 0.3333333 0.65 0.375 0.65 0.3333333 0.7000001 0.3333333 0.65 0.625 0 0.375 0.04999995 0.375 0 0.375 0.04999995 0.625 0.1 0.375 0.1 0.375 0.1 0.625 0.15 0.375 0.15 0.625 0.15 0.375 0.2 0.375 0.15 0.875 0.5 0.8333333 0.55 0.8333333 0.5 0.875 0.55 0.8333333 0.6 0.8333333 0.55 0.8333333 0.6 0.875 0.65 0.8333333 0.65 0.8333333 0.65 0.875 0.7000001 0.8333333 0.7000001 0.6666666 0.65 0.625 0.7 0.625 0.65 0.6666666 0.65 0.7083333 0.7 0.6666666 0.7 0.7083333 0.65 0.75 0.7000001 0.7083333 0.7 0.75 0.65 0.7916667 0.7000001 0.75 0.7000001 0.7916667 0.65 0.8333333 0.7000001 0.7916667 0.7000001 0.6666666 0.6 0.625 0.65 0.625 0.6 0.7083333 0.6 0.6666666 0.65 0.6666666 0.6 0.75 0.6 0.7083333 0.65 0.7083333 0.6 0.7916667 0.6 0.75 0.65 0.75 0.6 0.8333333 0.6 0.7916667 0.65 0.7916667 0.6 0.6666666 0.55 0.625 0.6 0.625 0.55 0.7083333 0.55 0.6666666 0.6 0.6666666 0.55 0.75 0.55 0.7083333 0.6 0.7083333 0.55 0.7916667 0.55 0.75 0.6 0.75 0.55 0.8333333 0.55 0.7916667 0.6 0.7916667 0.55 0.6666666 0.5 0.625 0.55 0.625 0.5 0.7083333 0.5 0.6666666 0.55 0.6666666 0.5 0.75 0.5 0.7083333 0.55 0.7083333 0.5 0.7916667 0.5 0.75 0.55 0.75 0.5 0.8333333 0.5 0.7916667 0.55 0.7916667 0.5 0.1666666 0.65 0.125 0.7 0.125 0.65 0.2083333 0.65 0.1666666 0.7 0.1666666 0.65 0.25 0.65 0.2083333 0.7 0.2083333 0.65 0.2916667 0.65 0.25 0.7000001 0.25 0.65 0.3333333 0.65 0.2916667 0.7000001 0.2916667 0.65 0.1666666 0.6 0.125 0.65 0.125 0.6 0.2083333 0.6 0.1666666 0.65 0.1666666 0.6 0.25 0.6 0.2083333 0.65 0.2083333 0.6 0.2916667 0.6 0.25 0.65 0.25 0.6 0.2916667 0.6 0.3333333 0.65 0.2916667 0.65 0.1666666 0.55 0.125 0.6 0.125 0.55 0.1666666 0.55 0.2083333 0.6 0.1666666 0.6 0.2083333 0.55 0.25 0.6 0.2083333 0.6 0.25 0.55 0.2916667 0.6 0.25 0.6 0.2916667 0.55 0.3333333 0.6 0.2916667 0.6 0.125 0.5 0.1666666 0.55 0.125 0.55 0.1666666 0.5 0.2083333 0.55 0.1666666 0.55 0.2083333 0.5 0.25 0.55 0.2083333 0.55 0.25 0.5 0.2916667 0.55 0.25 0.55 0.2916667 0.5 0.3333333 0.55 0.2916667 0.55 0.625 0.25 0.375 0.2916666 0.375 0.25 0.625 0.2916666 0.375 0.3333333 0.375 0.2916666 0.625 0.3333333 0.375 0.375 0.375 0.3333333 0.625 0.375 0.375 0.4166666 0.375 0.375 0.625 0.4166666 0.375 0.4583333 0.375 0.4166666 0.1666666 0.7 0.125 0.75 0.125 0.7 0.2083333 0.7 0.1666666 0.75 0.1666666 0.7 0.25 0.7000001 0.2083333 0.75 0.2083333 0.7 0.2916667 0.7000001 0.25 0.75 0.25 0.7000001 0.3333333 0.7000001 0.2916666 0.75 0.2916667 0.7000001 0.375 0.75 0.625 0.7916667 0.375 0.7916666 0.375 0.7916666 0.625 0.8333334 0.375 0.8333333 0.375 0.8333333 0.625 0.875 0.375 0.875 0.375 0.875 0.625 0.9166666 0.375 0.9166666 0.375 0.9166666 0.625 0.9583333 0.375 0.9583333 0.625 0.7 0.6666666 0.75 0.625 0.75 0.6666666 0.7 0.7083333 0.75 0.6666666 0.75 0.7083333 0.7 0.75 0.75 0.7083333 0.75 0.75 0.7000001 0.7916666 0.75 0.75 0.75 0.7916667 0.7000001 0.8333333 0.75 0.7916666 0.75 0.8333333 0.7000001 0.875 0.7000001 0.875 0.75 0.375 0.9583333 0.625 0.9583333 0.625 1 0.375 0.2 0.625 0.2 0.625 0.25 0.375 0.7000001 0.375 0.75 0.3333333 0.75 0.375 0.7000001 0.625 0.7 0.625 0.75 0.625 0.4583333 0.625 0.5 0.375 0.5 0.625 0.5 0.625 0.55 0.375 0.55 0.625 0.55 0.625 0.6 0.375 0.6 0.375 0.6 0.625 0.6 0.625 0.65 0.375 0.65 0.625 0.65 0.625 0.7 0.3333333 0.5 0.375 0.5 0.375 0.55 0.3333333 0.55 0.375 0.55 0.375 0.6 0.3333333 0.6 0.375 0.6 0.375 0.65 0.375 0.65 0.375 0.7000001 0.3333333 0.7000001 0.625 0 0.625 0.04999995 0.375 0.04999995 0.375 0.04999995 0.625 0.04999995 0.625 0.1 0.375 0.1 0.625 0.1 0.625 0.15 0.625 0.15 0.625 0.2 0.375 0.2 0.875 0.5 0.875 0.55 0.8333333 0.55 0.875 0.55 0.875 0.6 0.8333333 0.6 0.8333333 0.6 0.875 0.6 0.875 0.65 0.8333333 0.65 0.875 0.65 0.875 0.7000001 0.6666666 0.65 0.6666666 0.7 0.625 0.7 0.6666666 0.65 0.7083333 0.65 0.7083333 0.7 0.7083333 0.65 0.75 0.65 0.75 0.7000001 0.75 0.65 0.7916667 0.65 0.7916667 0.7000001 0.7916667 0.65 0.8333333 0.65 0.8333333 0.7000001 0.6666666 0.6 0.6666666 0.65 0.625 0.65 0.7083333 0.6 0.7083333 0.65 0.6666666 0.65 0.75 0.6 0.75 0.65 0.7083333 0.65 0.7916667 0.6 0.7916667 0.65 0.75 0.65 0.8333333 0.6 0.8333333 0.65 0.7916667 0.65 0.6666666 0.55 0.6666666 0.6 0.625 0.6 0.7083333 0.55 0.7083333 0.6 0.6666666 0.6 0.75 0.55 0.75 0.6 0.7083333 0.6 0.7916667 0.55 0.7916667 0.6 0.75 0.6 0.8333333 0.55 0.8333333 0.6 0.7916667 0.6 0.6666666 0.5 0.6666666 0.55 0.625 0.55 0.7083333 0.5 0.7083333 0.55 0.6666666 0.55 0.75 0.5 0.75 0.55 0.7083333 0.55 0.7916667 0.5 0.7916667 0.55 0.75 0.55 0.8333333 0.5 0.8333333 0.55 0.7916667 0.55 0.1666666 0.65 0.1666666 0.7 0.125 0.7 0.2083333 0.65 0.2083333 0.7 0.1666666 0.7 0.25 0.65 0.25 0.7000001 0.2083333 0.7 0.2916667 0.65 0.2916667 0.7000001 0.25 0.7000001 0.3333333 0.65 0.3333333 0.7000001 0.2916667 0.7000001 0.1666666 0.6 0.1666666 0.65 0.125 0.65 0.2083333 0.6 0.2083333 0.65 0.1666666 0.65 0.25 0.6 0.25 0.65 0.2083333 0.65 0.2916667 0.6 0.2916667 0.65 0.25 0.65 0.2916667 0.6 0.3333333 0.6 0.3333333 0.65 0.1666666 0.55 0.1666666 0.6 0.125 0.6 0.1666666 0.55 0.2083333 0.55 0.2083333 0.6 0.2083333 0.55 0.25 0.55 0.25 0.6 0.25 0.55 0.2916667 0.55 0.2916667 0.6 0.2916667 0.55 0.3333333 0.55 0.3333333 0.6 0.125 0.5 0.1666666 0.5 0.1666666 0.55 0.1666666 0.5 0.2083333 0.5 0.2083333 0.55 0.2083333 0.5 0.25 0.5 0.25 0.55 0.25 0.5 0.2916667 0.5 0.2916667 0.55 0.2916667 0.5 0.3333333 0.5 0.3333333 0.55 0.625 0.25 0.625 0.2916666 0.375 0.2916666 0.625 0.2916666 0.625 0.3333333 0.375 0.3333333 0.625 0.3333333 0.625 0.375 0.375 0.375 0.625 0.375 0.625 0.4166666 0.375 0.4166666 0.625 0.4166666 0.625 0.4583333 0.375 0.4583333 0.1666666 0.7 0.1666666 0.75 0.125 0.75 0.2083333 0.7 0.2083333 0.75 0.1666666 0.75 0.25 0.7000001 0.25 0.75 0.2083333 0.75 0.2916667 0.7000001 0.2916666 0.75 0.25 0.75 0.3333333 0.7000001 0.3333333 0.75 0.2916666 0.75 0.375 0.75 0.625 0.75 0.625 0.7916667 0.375 0.7916666 0.625 0.7916667 0.625 0.8333334 0.375 0.8333333 0.625 0.8333334 0.625 0.875 0.375 0.875 0.625 0.875 0.625 0.9166666 0.375 0.9166666 0.625 0.9166666 0.625 0.9583333 0.625 0.7 0.6666666 0.7 0.6666666 0.75 0.6666666 0.7 0.7083333 0.7 0.7083333 0.75 0.7083333 0.7 0.75 0.7000001 0.75 0.75 0.75 0.7000001 0.7916667 0.7000001 0.7916666 0.75 0.7916667 0.7000001 0.8333333 0.7000001 0.8333333 0.75</float_array>
          <technique_common>
            <accessor source="#Cube-mesh-map-0-array" count="492" stride="2">
              <param name="S" floatType="float"/>
              <param name="T" floatType="float"/>
            </accessor>
          </technique_common>
        </source>
        <vertices id="Cube-mesh-vertices">
          <input semantic="POSITION" source="#Cube-mesh-positions"/>
        </vertices>
        <triangles material="Material-material" count="164">
          <input semantic="VERTEX" source="#Cube-mesh-vertices" offset="0"/>
          <input semantic="NORMAL" source="#Cube-mesh-normals" offset="1"/>
          <input semantic="TEXCOORD" source="#Cube-mesh-map-0" offset="2" set="0"/>
          <p>79 0 0 6 0 1 33 0 2 34 1 3 6 1 4 7 1 5 8 2 6 4 2 7 5 2 8 20 3 9 38 3 10 59 3 11 20 4 12 2 4 13 3 4 14 43 5 15 1 5 16 24 5 17 0 6 18 23 6 19 1 6 20 12 7 21 22 7 22 23 7 23 22 8 24 14 8 25 21 8 26 21 9 27 15 9 28 20 9 29 24 10 30 23 10 31 44 10 32 44 11 33 22 11 34 49 11 35 49 12 36 21 12 37 54 12 38 21 13 39 59 13 40 54 13 41 6 14 42 11 14 43 7 14 44 11 15 45 17 15 46 10 15 47 10 16 48 18 16 49 9 16 50 18 17 51 8 17 52 9 17 53 4 18 54 64 18 55 39 18 56 19 19 57 69 19 58 64 19 59 69 20 60 17 20 61 74 20 62 74 21 63 16 21 64 79 21 65 78 22 66 15 22 67 14 22 68 78 23 69 82 23 70 83 23 71 77 24 72 81 24 73 82 24 74 76 25 75 80 25 76 81 25 77 75 26 78 79 26 79 80 26 80 73 27 81 14 27 82 13 27 83 72 28 84 78 28 85 73 28 86 71 29 87 77 29 88 72 29 89 70 30 90 76 30 91 71 30 92 69 31 93 75 31 94 70 31 95 68 32 96 13 32 97 12 32 98 67 33 99 73 33 100 68 33 101 66 34 102 72 34 103 67 34 104 65 35 105 71 35 106 66 35 107 64 36 108 70 36 109 65 36 110 43 37 111 12 37 112 0 37 113 42 38 114 68 38 115 43 38 116 41 39 117 67 39 118 42 39 119 40 40 120 66 40 121 41 40 122 39 41 123 65 41 124 40 41 125 58 42 126 11 42 127 10 42 128 57 43 129 63 43 130 58 43 131 56 44 132 62 44 133 57 44 134 55 45 135 61 45 136 56 45 137 54 46 138 60 46 139 55 46 140 53 47 141 10 47 142 9 47 143 52 48 144 58 48 145 53 48 146 51 49 147 57 49 148 52 49 149 50 50 150 56 50 151 51 50 152 50 51 153 54 51 154 55 51 155 48 52 156 9 52 157 8 52 158 48 53 159 52 53 160 53 53 161 47 54 162 51 54 163 52 54 164 46 55 165 50 55 166 51 55 167 45 56 168 49 56 169 50 56 170 5 57 171 48 57 172 8 57 173 28 58 174 47 58 175 48 58 176 27 59 177 46 59 178 47 59 179 26 60 180 45 60 181 46 60 182 25 61 183 44 61 184 45 61 185 4 62 186 28 62 187 5 62 188 39 63 189 27 63 190 28 63 191 40 64 192 26 64 193 27 64 194 41 65 195 25 65 196 26 65 197 42 66 198 24 66 199 25 66 200 63 67 201 7 67 202 11 67 203 62 68 204 34 68 205 63 68 206 61 69 207 35 69 208 62 69 209 60 70 210 36 70 211 61 70 212 59 71 213 37 71 214 60 71 215 3 72 216 29 72 217 38 72 218 38 73 219 30 73 220 37 73 221 37 74 222 31 74 223 36 74 224 36 75 225 32 75 226 35 75 227 35 76 228 33 76 229 34 76 230 15 77 231 29 77 232 2 77 233 83 78 234 30 78 235 29 78 236 82 79 237 31 79 238 30 79 239 81 80 240 32 80 241 31 80 242 80 81 243 33 81 244 32 81 245 79 82 246 16 82 247 6 82 248 34 83 249 33 83 250 6 83 251 8 84 252 19 84 253 4 84 254 20 85 255 3 85 256 38 85 257 20 86 258 15 86 259 2 86 260 43 87 261 0 87 262 1 87 263 0 88 264 12 88 265 23 88 266 12 89 267 13 89 268 22 89 269 22 90 270 13 90 271 14 90 272 21 91 273 14 91 274 15 91 275 24 92 276 1 92 277 23 92 278 44 93 279 23 93 280 22 93 281 49 94 282 22 94 283 21 94 284 21 95 285 20 95 286 59 95 287 6 96 288 16 96 289 11 96 290 11 97 291 16 97 292 17 97 293 10 98 294 17 98 295 18 98 296 18 99 297 19 99 298 8 99 299 4 100 300 19 100 301 64 100 302 19 101 303 18 101 304 69 101 305 69 102 306 18 102 307 17 102 308 74 103 309 17 103 310 16 103 311 78 104 312 83 104 313 15 104 314 78 105 315 77 105 316 82 105 317 77 106 318 76 106 319 81 106 320 76 107 321 75 107 322 80 107 323 75 108 324 74 108 325 79 108 326 73 109 327 78 109 328 14 109 329 72 110 330 77 110 331 78 110 332 71 111 333 76 111 334 77 111 335 70 112 336 75 112 337 76 112 338 69 113 339 74 113 340 75 113 341 68 114 342 73 114 343 13 114 344 67 115 345 72 115 346 73 115 347 66 116 348 71 116 349 72 116 350 65 117 351 70 117 352 71 117 353 64 118 354 69 118 355 70 118 356 43 119 357 68 119 358 12 119 359 42 120 360 67 120 361 68 120 362 41 121 363 66 121 364 67 121 365 40 122 366 65 122 367 66 122 368 39 123 369 64 123 370 65 123 371 58 124 372 63 124 373 11 124 374 57 125 375 62 125 376 63 125 377 56 126 378 61 126 379 62 126 380 55 127 381 60 127 382 61 127 383 54 128 384 59 128 385 60 128 386 53 129 387 58 129 388 10 129 389 52 130 390 57 130 391 58 130 392 51 131 393 56 131 394 57 131 395 50 50 396 55 50 397 56 50 398 50 132 399 49 132 400 54 132 401 48 133 402 53 133 403 9 133 404 48 134 405 47 134 406 52 134 407 47 135 408 46 135 409 51 135 410 46 136 411 45 136 412 50 136 413 45 137 414 44 137 415 49 137 416 5 138 417 28 138 418 48 138 419 28 60 420 27 60 421 47 60 422 27 139 423 26 139 424 46 139 425 26 140 426 25 140 427 45 140 428 25 141 429 24 141 430 44 141 431 4 142 432 39 142 433 28 142 434 39 143 435 40 143 436 27 143 437 40 144 438 41 144 439 26 144 440 41 145 441 42 145 442 25 145 443 42 146 444 43 146 445 24 146 446 63 147 447 34 147 448 7 147 449 62 148 450 35 148 451 34 148 452 61 149 453 36 149 454 35 149 455 60 150 456 37 150 457 36 150 458 59 151 459 38 151 460 37 151 461 3 152 462 2 152 463 29 152 464 38 153 465 29 153 466 30 153 467 37 154 468 30 154 469 31 154 470 36 155 471 31 155 472 32 155 473 35 156 474 32 156 475 33 156 476 15 157 477 83 157 478 29 157 479 83 158 480 82 158 481 30 158 482 82 159 483 81 159 484 31 159 485 81 160 486 80 160 487 32 160 488 80 161 489 79 161 490 33 161 491</p>
        </triangles>
      </mesh>
    </geometry>
  </library_geometries>
  <library_visual_scenes>
    <visual_scene id="Scene" name="Scene">
      <node id="Camera" name="Camera" floatType="NODE">
        <matrix sid="transform">0.6859207 -0.3240135 0.6515582 7.358891 0 0.8953956 0.4452714 4.958309 -0.7276763 -0.3054208 0.6141704 6.925791 0 0 0 1</matrix>
        <instance_camera url="#Camera-camera"/>
      </node>
      <node id="Light" name="Light" floatType="NODE">
        <matrix sid="transform">-0.2908646 -0.7711008 0.5663932 4.076245 -0.05518906 0.6045247 0.7946723 5.903862 -0.9551712 0.1998834 -0.2183912 -1.005454 0 0 0 1</matrix>
        <instance_light url="#Light-light"/>
      </node>
      <node id="Cube" name="Cube" floatType="NODE">
        <matrix sid="transform">1 0 0 0 0 0 1 0 0 -1 0 0 0 0 0 1</matrix>
        <instance_geometry url="#Cube-mesh" name="Cube">
          <bind_material>
            <technique_common>
              <instance_material symbol="Material-material" target="#Material-material">
                <bind_vertex_input semantic="UVMap" input_semantic="TEXCOORD" input_set="0"/>
              </instance_material>
            </technique_common>
          </bind_material>
        </instance_geometry>
      </node>
    </visual_scene>
  </library_visual_scenes>
  <scene>
    <instance_visual_scene url="#Scene"/>
  </scene>
</COLLADA>